<?xml version="1.0" standalone="no"?>
<!DOCTYPE svg PUBLIC "-//W3C//DTD SVG 20010904//EN"
 "http://www.w3.org/TR/2001/REC-SVG-20010904/DTD/svg10.dtd">
<svg version="1.0" xmlns="http://www.w3.org/2000/svg"
 width="1117.000000pt" height="806.000000pt" viewBox="0 0 1117.000000 806.000000"
 preserveAspectRatio="xMidYMid meet">

<g transform="translate(0.000000,806.000000) scale(0.100000,-0.100000)"
fill="#000000" stroke="none">
<path d="M2045 5317 c-56 -19 -64 -24 -139 -92 -140 -126 -248 -171 -436 -184
-129 -9 -169 -22 -228 -76 -65 -58 -85 -111 -93 -245 -13 -190 -58 -298 -190
-444 -53 -59 -72 -89 -85 -133 -32 -110 -4 -202 91 -303 122 -129 171 -245
184 -440 10 -146 35 -200 121 -262 48 -35 90 -46 200 -53 184 -12 294 -58 429
-180 99 -89 150 -110 250 -103 81 6 119 25 192 93 131 124 262 180 446 190
120 7 167 23 226 74 60 53 85 119 92 238 12 199 58 309 191 455 78 84 89 109
89 208 0 104 -18 144 -109 240 -109 116 -160 242 -171 420 -7 110 -18 152 -53
200 -62 85 -116 111 -262 121 -193 13 -303 58 -430 174 -38 35 -88 74 -112 86
-52 27 -148 34 -203 16z m195 -42 c19 -10 63 -44 96 -75 129 -119 243 -168
425 -180 131 -9 184 -27 237 -80 58 -57 74 -103 83 -230 13 -190 59 -299 179
-433 83 -92 101 -131 101 -214 0 -84 -23 -131 -110 -227 -114 -126 -170 -267
-171 -432 0 -96 -23 -158 -80 -214 -56 -57 -118 -80 -214 -80 -164 -1 -308
-58 -434 -173 -94 -86 -144 -109 -226 -109 -82 1 -121 19 -213 102 -134 120
-243 166 -433 179 -127 9 -173 25 -230 83 -53 52 -71 106 -80 237 -5 64 -14
134 -20 156 -28 95 -102 215 -175 285 -50 47 -76 102 -82 170 -8 88 15 145 98
236 126 139 167 234 179 419 9 135 22 175 74 233 57 63 111 83 251 92 185 12
280 53 419 179 42 39 95 76 119 85 54 20 160 15 207 -9z"/>
<path d="M1976 5110 c-226 -36 -417 -132 -583 -293 -143 -139 -239 -303 -290
-495 -22 -82 -26 -120 -27 -247 -1 -202 25 -315 110 -486 135 -271 379 -468
679 -549 103 -28 313 -38 422 -20 456 73 810 427 883 883 19 117 8 319 -24
434 -106 384 -412 674 -801 759 -85 19 -289 26 -369 14z m396 -49 c430 -113
741 -474 777 -903 26 -313 -78 -599 -298 -819 -220 -220 -513 -327 -822 -298
-376 35 -714 287 -856 639 -54 135 -66 204 -67 380 0 142 3 177 23 250 50 187
129 327 260 463 159 165 347 265 580 308 81 14 317 3 403 -20z"/>
<path d="M2262 4987 c-12 -13 -19 -26 -16 -30 4 -4 -1 -10 -10 -13 -14 -5 -15
-9 -5 -15 10 -6 9 -12 -5 -28 -11 -12 -25 -21 -33 -21 -7 0 -13 -7 -13 -15 0
-8 7 -15 15 -15 8 0 15 6 15 14 0 8 4 17 9 21 6 3 5 -10 -1 -31 -5 -20 -7 -38
-4 -41 2 -3 10 15 16 38 15 61 28 89 40 89 5 0 10 5 10 11 0 5 -4 8 -9 4 -5
-3 -12 -1 -15 3 -3 5 6 14 19 20 14 7 25 16 25 22 0 17 -15 11 -38 -13z"/>
<path d="M1970 4976 c0 -7 -7 -19 -15 -26 -8 -7 -15 -25 -15 -41 0 -22 -7 -32
-25 -41 -14 -6 -25 -15 -25 -20 0 -11 7 -10 32 3 19 10 20 9 16 -15 -4 -19 -1
-26 10 -26 11 0 13 7 9 30 -5 22 -2 32 12 39 10 6 21 7 25 4 3 -3 6 -1 6 6 0
9 -8 11 -25 7 -21 -5 -25 -3 -25 15 0 12 11 30 25 41 28 22 32 38 10 38 -8 0
-15 -6 -15 -14z"/>
<path d="M2341 4960 c-5 -16 -15 -30 -20 -30 -6 0 -8 7 -5 15 4 8 2 15 -4 15
-15 0 -21 -37 -8 -50 8 -8 6 -15 -9 -27 -19 -15 -19 -15 4 -8 23 7 23 6 17
-31 -4 -22 -10 -50 -13 -63 -4 -17 -2 -22 8 -19 9 3 17 28 22 68 6 49 14 69
33 87 14 13 22 28 18 35 -5 7 -10 4 -15 -10 -13 -34 -21 -26 -13 13 8 43 0 46
-15 5z"/>
<path d="M1905 4958 c-22 -12 -34 -23 -28 -25 12 -4 83 33 83 43 0 8 -15 3
-55 -18z"/>
<path d="M1566 4865 c-24 -32 -25 -35 -8 -35 16 0 25 11 50 63 2 4 -1 7 -6 7
-5 0 -22 -16 -36 -35z"/>
<path d="M1597 4827 c-3 -8 -2 -19 3 -26 5 -10 9 -8 14 4 3 9 6 21 6 26 0 14
-17 11 -23 -4z"/>
<path d="M2605 4820 c-3 -5 -17 -10 -30 -10 -18 0 -23 -4 -19 -15 5 -12 -2
-15 -31 -15 -32 0 -36 -2 -25 -15 7 -8 10 -22 6 -30 -8 -21 8 -19 29 5 22 24
96 30 76 6 -8 -10 -9 -16 -1 -21 15 -9 12 -25 -5 -25 -7 0 -19 8 -25 18 -10
15 -10 15 -8 -3 2 -13 12 -21 30 -23 22 -3 27 -9 33 -44 4 -23 11 -36 16 -31
5 5 5 22 0 40 -7 24 -6 35 5 44 18 15 18 29 -1 29 -28 0 -15 17 18 25 17 4 27
9 20 12 -7 2 -9 11 -6 19 7 19 -11 18 -27 -1 -13 -16 -65 -21 -74 -6 -3 5 8
11 24 15 18 3 30 12 30 21 0 17 -25 21 -35 5z"/>
<path d="M1564 4794 c5 -17 1 -35 -9 -50 -12 -19 -13 -24 -2 -24 8 0 19 10 26
23 l12 22 -5 -22 c-2 -13 0 -23 5 -23 5 0 9 -10 9 -21 0 -18 2 -19 15 -9 12
10 18 10 30 0 12 -10 22 -8 55 14 39 26 40 27 24 51 -21 32 -26 32 -14 0 8
-21 5 -27 -20 -45 -32 -23 -44 -14 -34 25 8 31 -9 33 -31 3 -15 -22 -15 -22
-9 11 5 23 4 32 -4 27 -6 -3 -13 2 -17 13 -3 11 -13 22 -21 25 -13 5 -15 1
-10 -20z"/>
<path d="M2040 4740 c-30 -4 -74 -13 -98 -19 -37 -10 -41 -14 -32 -30 9 -18
12 -18 57 -4 68 22 240 21 322 -1 64 -17 149 -57 206 -95 49 -33 150 -138 173
-180 l22 -39 -37 -6 c-21 -3 -99 -11 -173 -17 -83 -7 -151 -18 -175 -29 -22
-10 -75 -49 -117 -88 -133 -123 -202 -123 -334 -1 -85 79 -138 108 -204 110
-25 1 -57 4 -73 8 l-27 6 36 55 c19 30 53 73 75 96 27 27 38 46 33 57 -4 13
-10 14 -24 7 -22 -12 -107 -119 -142 -178 -13 -23 -26 -40 -29 -38 -2 2 -42 6
-88 10 l-84 7 53 -61 c43 -50 57 -60 83 -60 l32 1 -30 13 c-29 13 -93 73 -84
79 2 2 76 -4 164 -13 106 -11 171 -22 193 -34 19 -10 66 -48 106 -85 74 -68
121 -91 185 -91 51 0 92 23 177 97 43 39 90 76 104 83 25 13 350 51 350 40 -1
-15 -65 -73 -88 -80 -25 -8 -25 -8 10 -9 20 -1 38 3 40 8 6 16 80 93 84 88 3
-3 17 -38 31 -78 23 -64 26 -91 27 -199 1 -76 -4 -142 -12 -167 l-13 -43 -220
0 -219 0 20 -40 c22 -43 26 -103 9 -147 l-10 -28 -45 47 c-36 39 -44 54 -44
85 0 33 10 49 74 123 l74 85 -57 3 c-87 5 -161 -6 -161 -25 0 -12 3 -13 14 -4
9 7 42 11 87 9 l73 -3 -53 -59 c-89 -99 -97 -153 -31 -223 21 -23 26 -33 16
-33 -19 0 -106 91 -123 128 -7 15 -10 41 -8 59 8 43 -12 52 -20 9 -10 -49 9
-96 55 -141 44 -43 49 -55 21 -55 -10 0 -39 23 -65 50 -26 28 -49 50 -51 50
-15 0 0 -29 32 -62 24 -24 32 -38 22 -38 -8 0 -28 14 -45 31 -52 55 -61 56
-109 9 -55 -54 -78 -49 -30 7 51 60 26 62 -29 3 -28 -30 -55 -50 -68 -50 -21
0 -20 2 8 33 60 64 74 88 74 131 0 22 -5 48 -10 56 -11 17 -12 11 -10 -47 1
-36 -5 -48 -52 -105 -30 -34 -63 -65 -74 -67 -18 -3 -18 -2 2 20 30 33 54 83
54 112 0 26 -21 59 -89 138 l-44 51 86 -4 c48 -2 87 0 87 3 0 11 -60 19 -142
19 l-80 0 69 -77 c39 -43 75 -88 82 -101 19 -36 4 -77 -51 -137 l-50 -55 113
0 113 0 43 42 43 42 43 -42 43 -42 244 0 245 -1 -44 -38 c-64 -56 -156 -108
-236 -134 -101 -32 -281 -31 -380 1 -249 82 -415 289 -450 560 -9 69 3 178 18
163 6 -6 22 -10 37 -10 23 2 23 2 2 6 -12 2 -27 13 -32 24 -10 18 -6 19 116
19 105 0 131 -3 146 -17 10 -9 18 -12 18 -7 -1 29 -21 33 -175 40 l-160 7 -2
-24 c-9 -110 -4 -251 10 -309 60 -233 246 -425 482 -496 93 -28 278 -26 375 4
101 32 188 82 263 151 58 54 66 59 120 63 65 5 102 32 115 82 11 40 -1 94 -26
118 -18 19 -19 23 -5 66 8 26 17 85 20 132 21 323 -200 627 -512 704 -78 19
-186 26 -255 16z m736 -933 c40 -47 28 -133 -23 -156 -15 -7 -97 -11 -219 -11
l-195 0 12 22 c7 13 10 51 7 100 l-5 79 200 -3 199 -3 24 -28z"/>
<path d="M2410 3740 c0 -6 65 -10 175 -10 110 0 175 4 175 10 0 6 -65 10 -175
10 -110 0 -175 -4 -175 -10z"/>
<path d="M1740 4690 c-62 -62 21 -162 100 -120 22 12 42 64 33 88 -19 54 -93
72 -133 32z"/>
<path d="M1345 4628 c4 -13 11 -27 16 -32 5 -6 9 -19 9 -29 0 -16 -3 -17 -15
-7 -18 15 -20 1 -3 -35 17 -38 38 -32 39 13 0 34 1 35 11 15 8 -17 7 -33 -6
-66 -23 -60 -20 -71 5 -17 12 25 23 39 26 33 7 -18 50 -16 57 3 7 19 -1 34
-19 34 -24 0 -25 17 -4 44 11 14 17 26 12 26 -5 0 -17 -14 -27 -30 -19 -33
-43 -32 -26 0 24 45 4 90 -27 59 -8 -8 -13 -8 -17 0 -4 6 -14 11 -22 11 -11 0
-14 -6 -9 -22z m69 -22 c-5 -13 -9 -14 -14 -5 -11 16 0 43 12 31 5 -5 6 -17 2
-26z m-34 3 c0 -6 -4 -7 -10 -4 -5 3 -10 11 -10 16 0 6 5 7 10 4 6 -3 10 -11
10 -16z m78 -90 c-2 -6 -8 -10 -13 -10 -5 0 -11 4 -13 10 -2 6 4 11 13 11 9 0
15 -5 13 -11z"/>
<path d="M2871 4547 c-42 -18 -46 -18 -73 -3 -25 15 -43 6 -18 -9 17 -10 11
-21 -17 -32 -24 -9 -16 -10 48 -11 42 0 82 4 90 9 10 6 7 9 -11 9 l-25 0 30
24 c40 32 30 38 -24 13z"/>
<path d="M2793 4451 c1 -12 7 -21 14 -21 17 0 16 15 -1 30 -12 9 -15 8 -13 -9z"/>
<path d="M2915 4300 c-3 -5 15 -32 41 -60 26 -27 41 -50 35 -50 -7 0 -9 -5 -5
-11 3 -6 14 -9 23 -6 10 2 26 -2 36 -9 10 -8 26 -14 34 -14 17 1 -24 26 -49
32 -8 2 -35 31 -61 66 -26 34 -50 58 -54 52z"/>
<path d="M1198 4270 c-25 -59 -17 -154 11 -145 24 7 54 -17 56 -46 2 -26 39
-39 58 -20 8 8 7 11 -5 11 -23 0 -43 26 -27 36 9 5 8 10 -3 18 -8 6 -18 22
-22 36 -6 22 -4 21 23 -10 17 -19 33 -43 36 -52 11 -31 22 -19 29 30 6 47 6
47 -41 89 -27 23 -52 42 -58 42 -5 0 13 -21 42 -47 47 -42 51 -49 37 -61 -10
-9 -19 -10 -23 -4 -24 38 -74 84 -86 79 -10 -3 -15 5 -17 27 -3 20 -6 26 -10
17z m52 -101 c0 -24 -4 -30 -17 -27 -10 2 -19 12 -21 22 -3 11 0 16 7 12 7 -5
11 1 11 14 0 12 5 18 10 15 6 -3 10 -20 10 -36z"/>
<path d="M2990 4261 c0 -5 7 -11 15 -14 8 -4 12 -15 10 -27 -3 -15 0 -20 9
-17 8 3 24 -2 37 -10 14 -11 19 -12 14 -3 -6 10 -2 11 21 6 l29 -7 -30 19
c-17 11 -33 15 -36 9 -9 -14 -20 8 -13 26 4 12 0 14 -17 10 -15 -4 -20 -3 -15
5 4 7 1 12 -8 12 -9 0 -16 -4 -16 -9z"/>
<path d="M2920 4220 c0 -25 -38 -28 -47 -3 -5 14 -8 13 -15 -7 -11 -30 -6 -33
35 -22 32 9 37 8 58 -21 32 -44 36 -17 4 32 -28 46 -35 50 -35 21z"/>
<path d="M2335 4221 c-60 -5 -70 -9 -73 -26 -2 -18 -2 -18 8 -2 10 15 28 17
147 17 123 0 134 -1 122 -16 -7 -9 -22 -20 -34 -24 -18 -8 -18 -9 5 -9 17 -1
34 10 53 34 l28 35 -93 -2 c-51 -1 -124 -4 -163 -7z"/>
<path d="M1555 4110 c16 -16 38 -30 49 -29 20 0 20 1 -1 9 -13 5 -23 14 -23
20 0 15 213 13 228 -2 9 -9 12 -9 12 4 0 20 -58 28 -193 28 l-101 0 29 -30z"/>
<path d="M2256 4131 c-16 -3 -31 -13 -34 -21 -4 -12 -2 -13 9 -2 17 16 244 17
234 1 -4 -6 -17 -14 -29 -19 -20 -8 -20 -9 5 -9 17 -1 32 9 47 29 l23 30 -113
-1 c-62 -1 -126 -4 -142 -8z"/>
<path d="M1620 4035 c13 -14 30 -25 39 -25 11 0 10 3 -5 14 -32 24 -11 28 95
19 69 -6 100 -5 98 2 -2 6 -54 11 -127 13 l-124 3 24 -26z"/>
<path d="M2197 4053 c-17 -16 0 -18 94 -10 106 9 127 5 95 -19 -15 -11 -16
-14 -5 -14 9 0 26 11 39 25 l23 25 -120 0 c-66 0 -123 -3 -126 -7z"/>
<path d="M1331 3736 c-21 -34 -24 -35 -67 -29 -54 7 -62 -13 -9 -23 35 -6 35
-7 20 -30 -16 -25 -20 -54 -7 -54 4 0 17 16 30 36 23 35 25 36 70 29 41 -6 45
-5 33 9 -8 9 -24 16 -37 16 -28 0 -29 3 -9 33 8 13 11 28 6 35 -6 10 -14 4
-30 -22z"/>
<path d="M2886 3762 c-3 -5 3 -21 14 -35 27 -34 26 -37 -14 -37 -21 0 -36 -6
-40 -15 -5 -13 2 -15 44 -9 32 4 61 2 80 -6 35 -15 55 -3 25 14 -11 6 -39 31
-61 54 -23 24 -44 40 -48 34z"/>
<path d="M1355 3594 c-73 -44 -71 -42 -53 -49 17 -7 142 68 131 78 -10 11 -14
9 -78 -29z"/>
<path d="M2800 3594 c-23 -36 -21 -56 3 -36 10 9 25 5 61 -18 26 -17 51 -30
56 -30 23 0 7 20 -40 50 -39 25 -49 37 -45 51 10 32 -12 21 -35 -17z"/>
<path d="M1401 3529 c-28 -22 -51 -45 -51 -50 0 -6 12 -21 26 -36 20 -20 31
-24 57 -19 43 9 67 34 67 70 0 31 -23 76 -39 76 -5 0 -31 -18 -60 -41z m75
-14 c8 -33 -20 -65 -57 -65 -45 0 -46 20 -3 57 47 40 52 40 60 8z"/>
<path d="M1965 3560 c-3 -5 -1 -10 4 -10 15 0 14 -43 -1 -58 -9 -9 -7 -12 13
-12 23 0 24 3 21 45 -4 43 -22 60 -37 35z"/>
<path d="M2044 3556 c-9 -24 3 -46 26 -46 11 0 20 -5 20 -11 0 -7 -10 -9 -27
-4 -21 5 -25 4 -17 -5 7 -6 22 -10 35 -8 21 3 24 9 24 43 0 36 -3 40 -28 43
-18 2 -29 -2 -33 -12z m46 -10 c0 -8 -4 -17 -9 -21 -12 -7 -24 12 -16 25 9 15
25 12 25 -4z"/>
<path d="M2147 3564 c-4 -4 -7 -12 -7 -18 0 -6 4 -5 9 3 5 7 14 10 20 6 9 -5
9 -10 0 -21 -8 -10 -8 -14 0 -14 6 0 11 -7 11 -15 0 -18 -27 -20 -33 -2 -2 6
-8 9 -12 4 -14 -12 11 -29 36 -25 21 3 24 9 24 43 0 33 -4 41 -20 43 -12 2
-24 0 -28 -4z"/>
<path d="M2249 3568 c0 -2 -1 -22 -2 -46 -2 -39 0 -42 23 -41 14 0 19 3 13 6
-8 2 -13 22 -13 44 0 21 -4 39 -10 39 -5 0 -10 -1 -11 -2z"/>
<path d="M2736 3511 c-9 -14 104 -105 115 -94 6 6 -9 26 -45 56 -58 50 -62 52
-70 38z"/>
<path d="M1500 3415 c-36 -37 -51 -58 -44 -65 7 -7 28 8 64 45 36 37 51 58 44
65 -7 7 -28 -8 -64 -45z"/>
<path d="M2677 3452 c-36 -40 -9 -78 47 -68 43 8 58 -10 28 -34 -20 -16 -20
-30 0 -30 11 0 48 38 48 50 0 6 -9 19 -19 29 -15 15 -28 19 -55 14 -29 -5 -36
-2 -36 11 0 9 7 19 15 22 8 4 12 10 9 15 -8 14 -19 11 -37 -9z"/>
<path d="M1562 3355 c-35 -23 -59 -46 -53 -49 6 -4 19 -3 28 3 23 12 60 -16
55 -43 -2 -10 1 -23 6 -28 7 -7 16 10 27 48 20 70 24 106 10 110 -5 1 -38 -17
-73 -41z m52 -17 c-9 -31 -12 -34 -26 -20 -8 8 -8 15 2 27 19 22 32 18 24 -7z"/>
<path d="M2578 3374 c-16 -8 -28 -18 -28 -23 0 -17 82 -121 91 -115 6 3 4 16
-6 31 -24 35 -5 49 29 22 18 -14 31 -18 37 -12 7 7 0 18 -20 32 -17 13 -31 30
-31 40 0 19 -19 41 -34 41 -6 -1 -23 -8 -38 -16z m48 -25 c3 -6 1 -16 -4 -21
-13 -13 -45 8 -36 23 7 12 31 11 40 -2z"/>
<path d="M1686 3293 c-31 -63 -40 -93 -27 -93 6 0 22 21 35 48 l25 47 1 -61
c0 -46 4 -63 15 -68 12 -4 23 11 45 60 36 78 28 108 -9 38 l-26 -49 -3 63 c-4
77 -22 82 -56 15z"/>
<path d="M2468 3314 c-16 -8 -28 -17 -28 -20 0 -2 13 -34 29 -69 l30 -65 35
17 c36 17 47 33 24 33 -7 0 -20 -4 -28 -10 -9 -6 -17 -5 -22 3 -13 21 -9 35
12 42 31 10 24 27 -9 20 -39 -8 -52 21 -16 37 13 6 22 15 19 19 -7 12 -14 11
-46 -7z"/>
<path d="M2375 3233 c-4 -27 -8 -52 -9 -57 -1 -5 -15 12 -32 37 -18 29 -34 43
-41 39 -14 -9 64 -131 83 -132 13 0 24 54 24 118 0 57 -17 54 -25 -5z"/>
<path d="M1913 3203 c-14 -71 1 -103 46 -103 35 0 46 13 55 65 4 22 9 48 12
58 3 11 0 17 -10 17 -10 0 -17 -14 -21 -45 -9 -55 -26 -81 -50 -71 -17 6 -17
39 2 114 3 15 1 22 -9 22 -10 0 -18 -19 -25 -57z"/>
<path d="M2226 3241 c-4 -6 -5 -25 -2 -43 3 -18 8 -50 11 -70 3 -21 11 -38 17
-38 7 0 8 23 4 73 -7 72 -18 99 -30 78z"/>
<path d="M2070 3165 c0 -43 4 -75 10 -75 6 0 10 21 10 46 0 52 9 51 36 -5 11
-25 26 -41 37 -41 15 0 17 10 17 76 0 56 -3 75 -12 72 -7 -3 -15 -26 -18 -53
l-5 -49 -24 52 c-35 76 -51 69 -51 -23z"/>
<path d="M10060 5023 c-52 -101 -58 -108 -97 -122 -48 -17 -56 -31 -18 -31 29
0 31 -8 10 -36 -30 -40 -13 -37 30 6 25 24 45 39 45 32 0 -25 -29 -69 -66
-102 -35 -30 -38 -31 -45 -13 -8 21 -74 83 -89 83 -5 0 0 -20 11 -45 11 -25
17 -50 14 -55 -4 -6 3 -14 15 -18 20 -7 19 -9 -12 -39 l-33 -32 -20 29 c-26
39 -50 49 -40 18 4 -13 10 -43 14 -68 9 -63 36 -65 75 -8 34 51 92 102 105 94
6 -4 -1 -25 -15 -49 -34 -61 -29 -68 15 -19 l37 43 32 -18 c26 -15 33 -16 44
-5 11 11 7 19 -20 42 l-33 28 31 56 c18 31 49 71 70 89 47 39 108 73 117 63 4
-3 -6 -33 -22 -66 -20 -41 -34 -60 -47 -60 -13 0 -18 -8 -18 -30 0 -16 -4 -30
-10 -30 -5 0 -10 -8 -10 -17 0 -9 -7 -25 -17 -35 -23 -26 -11 -31 29 -12 39
18 43 24 104 142 52 99 57 142 19 142 -29 0 -75 -21 -122 -57 -31 -23 -34 -23
-58 -7 -14 9 -25 17 -25 19 0 1 16 29 35 61 44 72 52 101 34 120 -12 11 -22
-2 -69 -93z"/>
<path d="M9337 4953 c-2 -5 -14 -42 -26 -83 -47 -160 -85 -256 -111 -283 -21
-23 -51 -35 -140 -57 -62 -16 -117 -33 -122 -38 -6 -6 1 -18 17 -30 24 -19 35
-20 110 -15 103 7 110 -1 66 -76 -17 -29 -31 -55 -31 -58 0 -3 -12 -21 -26
-40 -21 -27 -23 -37 -14 -48 15 -18 25 -19 42 -2 7 6 30 24 50 40 20 15 49 49
64 76 14 28 33 52 40 55 8 3 14 16 14 30 0 15 12 34 33 51 110 93 168 152 186
191 45 94 46 193 2 106 -22 -43 -104 -108 -122 -96 -6 3 -8 17 -4 33 17 64 35
158 35 183 0 39 -49 85 -63 61z"/>
<path d="M5290 4928 c-39 -42 -62 -109 -64 -184 l-1 -71 -63 -69 c-49 -53 -62
-63 -58 -44 10 52 16 160 8 160 -10 0 -43 -44 -66 -89 -17 -32 -70 -221 -64
-225 2 -1 16 -12 32 -24 26 -20 30 -20 56 -7 15 8 38 27 50 42 11 16 45 60 75
98 30 39 60 70 67 70 19 0 14 -58 -10 -140 -20 -64 -25 -72 -56 -83 -19 -7
-68 -31 -108 -54 -40 -22 -110 -61 -155 -86 -57 -31 -83 -51 -83 -64 0 -24 46
-24 68 0 15 17 107 62 246 122 l45 19 -1 -48 c0 -67 14 -90 62 -97 22 -4 40
-10 40 -15 0 -18 -63 -50 -110 -56 -56 -6 -65 -18 -21 -28 51 -11 117 14 166
62 39 38 50 44 74 38 25 -5 61 13 61 31 0 6 -96 156 -111 173 -14 16 -13 17
88 68 40 20 87 37 105 38 54 3 99 17 95 29 -6 17 -46 19 -107 6 -65 -14 -237
-78 -246 -91 -13 -22 -22 -6 -12 24 18 54 55 96 96 107 60 16 127 73 161 137
17 33 14 88 -7 106 -23 21 -97 22 -134 3 l-27 -14 6 63 c5 50 2 70 -11 90 -21
32 -58 33 -86 3z m39 -90 c-4 -29 -8 -63 -8 -75 -1 -12 -14 -31 -32 -44 l-32
-22 7 49 c9 57 52 158 64 150 5 -3 5 -29 1 -58z m166 -79 c14 -21 -6 -57 -65
-118 -34 -35 -63 -61 -66 -58 -3 3 -2 32 2 65 6 56 9 62 48 91 43 31 70 38 81
20z m-149 -454 c3 -25 3 -56 0 -70 -5 -21 -12 -25 -46 -25 -47 0 -54 9 -46 64
5 31 14 46 34 59 41 25 50 21 58 -28z"/>
<path d="M7393 4844 c-124 -149 -160 -204 -133 -204 6 0 10 4 10 9 0 15 53 62
120 106 77 50 103 77 121 127 10 30 10 40 0 52 -8 9 -17 16 -22 16 -4 0 -48
-48 -96 -106z"/>
<path d="M6240 4930 c-14 -4 -72 -22 -130 -40 -139 -42 -152 -48 -148 -62 3
-7 23 -16 45 -21 77 -15 78 -50 4 -85 -34 -17 -36 -20 -37 -71 -1 -50 -3 -56
-40 -84 -41 -31 -141 -80 -186 -91 -16 -3 -28 -13 -28 -22 0 -18 58 -44 98
-44 28 0 93 39 121 73 16 20 41 22 41 5 0 -32 -14 -58 -34 -64 -65 -21 -88
-70 -36 -80 17 -4 30 -9 30 -11 0 -3 -16 -27 -35 -52 -57 -79 -65 -121 -20
-121 14 0 31 12 46 35 28 41 42 45 33 10 -5 -20 -1 -26 20 -35 21 -8 26 -16
26 -45 0 -62 11 -71 97 -84 77 -11 299 -1 324 15 16 10 5 164 -12 175 -12 8
-12 10 0 18 12 8 12 14 -2 44 -10 19 -18 43 -18 54 -1 10 -5 -31 -10 -91 -11
-163 -22 -173 -197 -175 -107 -1 -132 8 -132 48 0 20 11 36 42 61 42 34 110
105 117 122 6 16 -31 48 -56 48 -13 0 -67 -20 -120 -45 -139 -65 -135 -52 16
60 44 33 81 67 81 75 0 22 -52 51 -70 40 -25 -16 -37 -11 -35 12 1 18 9 24 37
29 48 7 186 98 194 127 8 30 -12 52 -47 52 -16 0 -66 -18 -110 -41 -83 -41
-106 -44 -74 -9 10 11 15 28 12 39 -3 12 3 27 17 39 20 18 201 110 259 131 84
32 5 90 -83 61z m-92 -292 c-16 -24 -85 -64 -95 -54 -10 10 50 51 70 48 11 -2
16 1 13 6 -5 9 4 17 23 21 2 1 -3 -9 -11 -21z m-68 -196 c0 -10 -41 -35 -47
-28 -9 8 17 36 33 36 8 0 14 -3 14 -8z m-110 -67 c11 -13 8 -15 -14 -15 -25 0
-33 10 -19 23 10 11 19 8 33 -8z m120 -95 c-33 -41 -44 -46 -69 -31 -11 7 -7
13 20 24 19 7 40 21 48 30 30 36 31 14 1 -23z m-75 -69 c3 -5 1 -12 -5 -16 -5
-3 -10 1 -10 9 0 18 6 21 15 7z"/>
<path d="M7736 4911 c-9 -10 -15 -31 -14 -47 5 -55 -13 -215 -25 -218 -7 -2
-29 -9 -50 -16 -55 -17 -69 0 -30 37 17 15 33 35 35 43 9 27 -11 50 -42 50
-46 0 -91 -56 -60 -75 5 -3 7 -25 4 -48 -6 -45 6 -66 43 -71 10 -2 20 -13 23
-26 3 -13 14 -26 24 -30 15 -5 7 -16 -49 -68 -63 -57 -74 -82 -39 -82 9 0 42
25 74 56 32 31 63 54 67 51 5 -3 7 -118 6 -256 l-3 -251 29 0 c15 0 40 9 55
21 24 19 26 24 19 77 -4 31 -6 78 -5 104 1 38 -1 46 -13 42 -8 -4 -15 -1 -15
5 0 6 5 11 10 11 6 0 10 9 10 20 0 11 -4 20 -10 20 -5 0 -10 14 -10 30 0 17 5
30 11 30 7 0 9 13 5 38 -14 76 -18 133 -11 159 3 15 34 53 67 84 60 55 62 58
66 116 5 72 -8 103 -44 103 -21 0 -23 -3 -14 -19 26 -49 -3 -146 -50 -171 -26
-14 -28 -5 -19 75 23 206 23 207 8 216 -21 13 -34 11 -53 -10z m-41 -370 c-3
-6 -11 -11 -17 -11 -6 0 -6 6 2 15 14 17 26 13 15 -4z"/>
<path d="M4695 4895 c-210 -45 -322 -82 -437 -142 -65 -34 -73 -41 -76 -70 -3
-31 -1 -33 35 -39 l39 -6 -11 -94 c-10 -87 -13 -95 -46 -128 -20 -20 -42 -48
-49 -63 -8 -16 -16 -30 -17 -32 -2 -3 -10 5 -19 17 -18 26 -56 29 -75 5 -20
-24 -15 -101 11 -156 23 -48 74 -101 93 -94 6 2 12 33 13 69 2 69 18 110 54
143 l22 20 20 -28 c23 -32 62 -36 78 -8 5 11 10 41 10 68 l0 48 63 39 c34 22
74 51 90 65 41 37 33 10 -23 -79 -27 -44 -50 -81 -50 -84 0 -2 -24 -38 -52
-81 -29 -42 -61 -89 -71 -104 -9 -14 -24 -25 -32 -23 -16 3 -35 -35 -35 -69 0
-16 7 -19 49 -19 28 0 53 5 56 10 4 6 34 24 67 41 l61 31 24 -26 c33 -36 73
-34 118 5 43 38 59 68 86 157 49 164 64 211 91 267 33 70 37 121 10 129 -10 3
-44 -1 -75 -9 -32 -8 -61 -15 -65 -15 -4 0 -6 17 -4 39 5 47 -25 81 -72 81
-24 0 -28 3 -16 10 28 18 176 60 213 60 33 0 37 3 37 24 0 21 -33 58 -50 55
-3 -1 -32 -7 -65 -14z m-225 -185 c0 -5 -9 -14 -20 -20 -22 -12 -56 -58 -48
-66 3 -3 35 9 71 25 70 32 117 47 117 37 0 -3 -7 -23 -15 -43 -15 -36 -21 -40
-128 -79 -61 -23 -115 -39 -119 -37 -5 2 -8 35 -8 73 l0 68 49 12 c27 6 58 18
68 25 21 17 33 19 33 5z m290 -91 c0 -11 -10 -41 -21 -67 -62 -134 -78 -175
-108 -267 -35 -105 -53 -135 -82 -135 -25 0 -32 15 -14 30 22 18 19 28 -15 45
-29 15 -32 15 -61 -6 -41 -29 -46 -19 -16 33 14 24 57 106 97 183 39 77 79
148 89 158 19 19 84 46 114 47 11 0 17 -7 17 -21z"/>
<path d="M8510 4839 c-6 -11 -10 -39 -9 -62 4 -83 -9 -114 -65 -154 -71 -52
-179 -123 -188 -123 -23 0 0 46 62 120 38 47 69 91 70 98 0 8 -21 39 -47 70
-26 32 -49 59 -51 62 -8 12 -26 -37 -61 -166 -9 -35 -19 -45 -76 -79 -36 -21
-68 -42 -72 -48 -3 -5 4 -18 15 -30 18 -18 24 -19 51 -8 31 14 51 8 51 -13 0
-21 -29 -74 -44 -79 -8 -3 -40 -25 -72 -50 -33 -24 -76 -50 -96 -56 -21 -7
-38 -16 -38 -21 0 -21 97 -42 138 -29 8 3 21 -20 35 -61 13 -36 29 -66 37 -67
24 -4 54 25 57 55 2 15 7 64 12 110 6 61 13 89 27 102 29 28 187 130 202 130
16 0 7 -36 -14 -61 -8 -8 -14 -25 -14 -37 0 -19 6 -22 40 -22 39 0 110 -27
110 -41 0 -4 -15 -24 -34 -43 -45 -49 -84 -47 -145 8 l-24 21 6 -39 c10 -63
31 -86 78 -86 48 0 68 10 131 63 42 35 50 38 65 26 50 -39 95 -80 159 -144 39
-39 76 -69 82 -67 17 5 15 80 -4 111 -9 15 -37 39 -62 54 -26 15 -68 46 -95
70 l-47 43 15 50 c19 63 19 110 1 117 -19 7 -110 -21 -162 -50 -12 -7 -24 -10
-27 -7 -9 9 61 116 90 137 16 11 41 39 56 64 28 42 28 45 12 69 l-16 25 -22
-32 c-33 -48 -46 -48 -40 1 5 33 2 45 -17 65 -29 30 -46 32 -60 4z m-209 -122
c-13 -13 -26 -3 -16 12 3 6 11 8 17 5 6 -4 6 -10 -1 -17z m344 -227 c9 -14
-13 -50 -31 -50 -8 0 -25 5 -36 11 l-21 11 24 19 c26 20 54 24 64 9z m-495
-194 c0 -32 -10 -38 -34 -20 -16 11 -17 16 -6 29 19 23 40 18 40 -9z"/>
<path d="M6920 4796 c-36 -7 -94 -22 -130 -33 -36 -12 -105 -33 -155 -48 -49
-14 -96 -28 -103 -31 -21 -6 -10 -37 18 -52 34 -17 106 -9 139 16 30 24 130
74 184 91 20 7 37 17 37 22 0 5 12 6 26 3 19 -5 25 -4 20 5 -4 6 -2 11 3 11 6
0 11 -5 11 -10 0 -12 -24 -35 -104 -100 -67 -55 -82 -83 -99 -194 -8 -48 -18
-91 -23 -95 -5 -4 -34 -15 -64 -24 -78 -25 -145 -59 -148 -77 -2 -10 10 -20
31 -28 38 -14 76 -6 142 31 51 29 55 25 55 -56 0 -62 -7 -75 -45 -85 -16 -5
-30 -12 -32 -18 -8 -26 118 -47 134 -22 4 7 7 62 8 122 0 86 3 110 15 117 37
20 130 59 139 59 16 0 14 -11 -6 -32 -13 -15 -14 -18 -1 -18 24 0 60 46 56 72
-3 21 -7 23 -55 20 -28 -1 -73 -9 -99 -17 -26 -8 -52 -11 -57 -8 -12 7 -2 134
12 161 6 11 46 38 89 61 44 22 96 59 116 81 40 45 40 44 26 71 -12 22 -41 23
-140 5z"/>
<path d="M7433 4714 c-3 -8 -15 -14 -27 -12 -14 2 -36 -12 -65 -40 -24 -24
-57 -50 -73 -60 -31 -18 -38 -52 -10 -52 9 1 28 7 42 15 14 8 29 14 33 15 12
0 -3 -91 -19 -117 -18 -28 -101 -106 -145 -136 -19 -12 -35 -32 -37 -42 -3
-22 51 -85 72 -85 27 0 53 46 65 117 7 39 19 80 27 90 14 16 15 4 9 -117 -3
-74 -8 -156 -11 -182 -5 -46 -4 -48 20 -48 34 0 41 14 42 90 2 133 15 354 23
397 10 50 22 66 72 91 40 20 51 58 23 79 -23 17 -33 16 -41 -3z"/>
<path d="M10072 4630 c-85 -46 -173 -104 -257 -170 -55 -42 -183 -124 -207
-132 -19 -7 3 -48 27 -54 46 -11 94 16 198 113 99 93 228 197 275 222 23 12
23 12 12 -11 -7 -13 -24 -38 -37 -56 -28 -38 -25 -51 7 -29 31 22 120 107 120
115 -1 17 -29 42 -46 42 -10 0 -52 -18 -92 -40z"/>
<path d="M10195 4505 c-22 -14 -71 -41 -110 -61 -86 -45 -207 -125 -212 -141
-7 -20 76 -31 119 -17 21 7 39 10 41 6 3 -4 2 -50 -2 -102 l-6 -95 -68 -3
c-37 -2 -83 2 -103 7 -69 19 -30 -12 62 -49 49 -20 104 -44 122 -55 32 -19 32
-19 52 1 19 19 20 25 10 95 -14 94 -29 178 -36 205 -4 16 6 31 47 65 29 24 49
37 44 29 -5 -8 -20 -23 -33 -34 -12 -10 -21 -21 -18 -24 8 -7 101 57 161 111
43 39 48 48 39 64 -16 27 -63 26 -109 -2z"/>
<path d="M9268 4325 c-11 -11 0 -25 19 -25 27 0 103 -54 103 -72 0 -23 19 -22
50 2 14 11 33 20 43 20 30 0 20 38 -15 56 -34 17 -188 32 -200 19z"/>
<path d="M5524 3552 c-58 -120 -88 -171 -105 -179 -20 -10 -13 -12 46 -11 39
0 60 3 47 5 -30 6 -37 26 -22 63 12 29 14 30 82 30 l69 0 15 -35 c19 -46 18
-53 -8 -58 -13 -2 20 -5 72 -6 88 -1 93 0 73 14 -13 9 -58 90 -102 180 -44 91
-81 165 -83 165 -2 0 -40 -76 -84 -168z m79 -17 l27 -55 -55 0 c-30 0 -55 4
-55 10 0 14 43 100 50 100 3 0 18 -25 33 -55z"/>
<path d="M8973 3700 c-53 -32 -66 -76 -38 -129 9 -19 41 -42 94 -70 93 -48
110 -70 86 -107 -12 -19 -24 -24 -59 -24 -51 0 -87 24 -116 78 l-19 37 -1 -69
c0 -60 2 -67 15 -56 12 10 24 10 54 1 108 -32 201 12 201 95 0 46 -33 80 -120
124 -86 43 -104 68 -74 101 27 30 77 25 119 -12 19 -17 35 -37 35 -44 0 -8 5
-17 10 -20 6 -4 10 17 10 56 0 54 -2 60 -15 49 -12 -10 -24 -10 -54 -1 -55 16
-91 14 -128 -9z"/>
<path d="M4042 3703 c16 -4 148 -172 148 -187 0 -16 -106 -126 -134 -140 -30
-15 -29 -16 44 -15 45 1 65 4 51 8 -14 4 -26 11 -28 17 -4 11 73 104 86 104 4
0 24 -23 45 -52 37 -48 38 -52 20 -65 -15 -11 -5 -13 76 -13 90 0 93 1 71 16
-13 9 -52 55 -86 102 l-63 85 51 60 c29 33 66 66 82 73 28 12 26 13 -45 13
-55 0 -69 -3 -52 -9 12 -5 22 -15 22 -22 0 -16 -58 -88 -70 -88 -11 0 -70 81
-70 96 0 7 10 15 23 17 12 2 -25 4 -83 4 -58 1 -97 -1 -88 -4z"/>
<path d="M4500 3701 l25 -7 0 -159 0 -159 -25 -7 c-14 -4 22 -7 80 -7 58 1 94
3 80 5 -14 3 -28 10 -32 17 -4 6 -8 75 -8 152 0 147 2 156 45 167 11 2 -27 5
-85 5 -58 0 -94 -3 -80 -7z"/>
<path d="M4740 3701 l25 -7 0 -159 0 -159 -25 -7 c-14 -4 31 -7 100 -8 141 -1
186 12 232 67 54 64 49 163 -11 223 -48 48 -92 59 -231 58 -63 -1 -104 -4 -90
-8z m208 -27 c37 -25 54 -71 54 -143 1 -72 -18 -123 -51 -141 -30 -15 -78 -12
-85 6 -3 9 -6 78 -6 155 l0 139 33 0 c18 0 43 -7 55 -16z"/>
<path d="M5175 3703 c39 -9 45 -31 45 -172 0 -75 -4 -141 -8 -147 -4 -7 -18
-14 -32 -17 -14 -2 22 -4 80 -5 58 0 94 3 80 7 l-25 7 0 159 0 159 25 7 c14 4
-22 7 -80 7 -58 0 -96 -2 -85 -5z"/>
<path d="M5873 3694 l28 -15 -3 -147 c-3 -145 -3 -147 -28 -159 -22 -11 -18
-13 45 -11 39 0 60 3 47 5 -36 7 -43 35 -40 159 l3 116 130 -146 c71 -80 133
-146 137 -146 4 0 9 75 10 167 3 167 3 167 28 180 22 11 18 13 -45 11 -38 0
-60 -3 -47 -5 13 -3 27 -16 33 -29 11 -30 12 -174 2 -173 -5 0 -48 47 -98 105
l-90 104 -70 -1 c-68 0 -69 0 -42 -15z"/>
<path d="M6500 3701 c25 -7 25 -8 30 -141 3 -78 10 -144 17 -156 28 -48 150
-71 211 -40 61 31 67 47 72 189 5 128 6 132 30 144 22 11 18 13 -45 12 -44 -1
-61 -4 -45 -8 30 -8 38 -34 39 -126 0 -92 -12 -153 -37 -177 -26 -27 -94 -28
-122 -3 -19 17 -20 29 -18 159 3 140 3 140 28 147 14 4 -22 7 -80 7 -58 0 -94
-3 -80 -7z"/>
<path d="M6930 3703 c46 -17 50 -31 50 -159 0 -137 -8 -170 -42 -177 -13 -2 9
-5 47 -5 58 0 65 1 43 10 l-28 10 0 124 c0 68 2 124 4 124 2 0 62 -64 133
-142 l128 -142 5 169 c5 169 5 170 30 182 22 11 17 13 -45 11 -38 0 -60 -3
-48 -5 37 -7 44 -26 41 -119 l-3 -87 -94 106 -93 107 -72 -1 c-39 0 -64 -3
-56 -6z"/>
<path d="M7375 3703 c43 -11 45 -20 45 -167 0 -77 -4 -146 -8 -152 -4 -7 -16
-14 -27 -17 -11 -2 25 -5 80 -5 55 0 89 3 75 7 -25 7 -25 7 -28 146 -3 168 -1
182 36 188 15 2 -22 4 -83 4 -60 1 -101 -2 -90 -4z"/>
<path d="M7613 3703 c12 -3 47 -64 102 -179 46 -96 86 -174 89 -174 4 0 43 75
89 166 57 117 89 170 107 180 23 12 20 13 -45 13 -44 -1 -61 -4 -45 -8 14 -4
26 -14 28 -23 2 -9 -19 -60 -47 -115 l-49 -98 -52 108 c-29 60 -48 112 -44
117 5 4 18 10 29 13 11 3 -25 5 -80 5 -55 0 -92 -2 -82 -5z"/>
<path d="M8070 3701 l25 -7 0 -159 0 -159 -25 -7 c-14 -4 52 -7 146 -8 l172
-1 6 31 c3 17 6 43 5 58 0 24 -1 24 -9 5 -4 -11 -23 -33 -40 -48 -28 -23 -40
-27 -89 -24 l-56 3 -3 73 c-2 39 -1 72 2 72 24 0 59 -26 71 -52 14 -31 14 -29
14 62 0 93 0 94 -15 60 -16 -38 -30 -50 -56 -50 -16 0 -18 10 -18 70 l0 70 44
0 c63 0 96 -15 109 -50 17 -44 27 -37 27 20 l0 50 -167 -1 c-93 -1 -157 -4
-143 -8z"/>
<path d="M8480 3701 l25 -7 0 -159 0 -159 -25 -7 c-14 -4 20 -7 75 -7 55 0 91
3 80 5 -29 8 -35 21 -35 91 0 47 3 62 14 62 8 0 43 -36 77 -80 l61 -80 67 1
c36 1 58 3 48 6 -16 4 -127 137 -127 152 1 3 15 15 33 26 63 40 57 113 -13
147 -28 15 -60 18 -170 17 -74 -1 -124 -4 -110 -8z m220 -31 c13 -13 20 -33
20 -59 0 -48 -26 -71 -82 -71 l-38 0 0 75 0 75 40 0 c27 0 47 -7 60 -20z"/>
<path d="M9265 3701 l30 -6 0 -160 0 -159 -25 -7 c-14 -4 20 -7 75 -7 55 0 91
3 80 5 -11 3 -23 10 -27 17 -4 6 -8 75 -8 152 0 147 2 156 45 167 11 2 -29 5
-90 5 -60 0 -96 -3 -80 -7z"/>
<path d="M9500 3663 l1 -48 15 27 c18 34 43 48 83 48 l31 0 0 -147 c0 -82 -4
-153 -8 -159 -4 -7 -18 -14 -32 -17 -14 -2 22 -4 80 -5 58 0 94 3 80 7 l-25 7
-3 157 -3 157 36 0 c34 0 56 -15 82 -56 10 -16 12 -12 12 29 l1 47 -175 0
-175 0 0 -47z"/>
<path d="M9906 3700 c12 -4 49 -53 83 -109 60 -96 62 -102 59 -158 -3 -55 -4
-58 -33 -64 -16 -4 20 -7 80 -7 61 0 99 3 85 7 -23 6 -25 12 -28 74 l-3 66 61
91 c34 50 71 95 83 100 16 6 4 9 -43 9 -49 0 -59 -3 -42 -9 12 -5 22 -13 22
-18 0 -16 -92 -152 -100 -147 -11 7 -90 141 -90 154 0 5 10 12 23 14 12 2 -23
5 -78 5 -64 0 -92 -2 -79 -8z"/>
</g>
</svg>
